<?xml version="1.0" encoding="utf-8"?>
<!-- Generator: Adobe Illustrator 23.0.5, SVG Export Plug-In . SVG Version: 6.00 Build 0)  -->
<svg version="1.1" id="Capa_1" xmlns="http://www.w3.org/2000/svg" xmlns:xlink="http://www.w3.org/1999/xlink" x="0px" y="0px"
	 viewBox="0 0 500 500" style="enable-background:new 0 0 500 500;" xml:space="preserve">
<style type="text/css">
	.st0{fill:url(#SVGID_1_);}
	.st1{fill-rule:evenodd;clip-rule:evenodd;fill:#FFFFFF;}
	.st2{fill:#001A5A;}
</style>
<title>kriptyLogo</title>
<linearGradient id="SVGID_1_" gradientUnits="userSpaceOnUse" x1="32.5152" y1="202.485" x2="169.2152" y2="345.135" gradientTransform="matrix(1 0 0 1 0 0.11)">
	<stop  offset="0" style="stop-color:#81ECEC"/>
	<stop  offset="1" style="stop-color:#0090D4"/>
</linearGradient>
<path class="st0" d="M7.3,218.8v61.9c0,6.2,3.3,11.9,8.6,15.1L69,326.7c5.3,3.1,11.9,3.1,17.2,0l53.3-31.1c5.3-3.2,8.6-8.9,8.6-15.1
	v-61.7c0-6.2-3.3-11.9-8.6-15.1l-53.1-30.8c-5.3-3.1-11.9-3.1-17.2,0l-53.4,30.9C10.5,206.9,7.3,212.6,7.3,218.8z"/>
<path class="st1" d="M79.3,267l11.9,19.9c0.6,0.9,1.6,1.5,2.6,1.5h13c1.7,0.1,3.1-1.2,3.1-2.9c0-0.6-0.1-1.2-0.5-1.8l-15.9-25.2
	c-1.5-2.6-4.9-3.4-7.4-1.8c-0.4,0.3-0.8,0.6-1.2,1l-5.3,5.5C78.6,264.2,78.4,265.8,79.3,267z M63.5,285c0.1-11.4,4.2-22.3,11.7-30.9
	l34.6-39.3c1.1-1.2,1.1-3.1-0.1-4.2c-0.6-0.5-1.3-0.8-2.1-0.8H95.2c-0.9,0.1-1.8,0.5-2.4,1.2l-24,27.8c-1.1,1.3-3,1.4-4.2,0.4
	c-0.7-0.6-1.1-1.4-1.1-2.4v-23.6c0.1-1.7-1.3-3-2.9-3.1c-0.1,0-0.1,0-0.2,0H49.2c-1.7-0.1-3,1.3-3.1,2.9c0,0.1,0,0.1,0,0.2V285
	c-0.1,1.7,1.3,3,2.9,3.1c0.1,0,0.1,0,0.2,0h11.2c1.7,0.1,3-1.3,3.1-2.9C63.5,285.1,63.5,285.1,63.5,285z"/>
<path class="st2" d="M205.7,253.9l-6.7,7v12.6h-11.5v-49.9H199v23.3l22.1-23.3H234l-20.7,22.3l21.9,27.7h-13.5L205.7,253.9z"/>
<path class="st2" d="M280,273.5l-9.6-13.9h-10.6v13.9h-11.6v-49.9h21.6c3.9-0.1,7.9,0.7,11.5,2.2c6.4,2.6,10.5,9,10.2,15.9
	c0.3,6.9-3.9,13.2-10.3,15.8l11.2,16L280,273.5z M279.8,241.7c0.2-2.4-0.8-4.8-2.7-6.4c-1.8-1.5-4.4-2.3-7.9-2.3h-9.4v17.4h9.4
	c3.5,0,6.1-0.8,7.9-2.3C279,246.5,280,244.2,279.8,241.7z"/>
<path class="st2" d="M308.6,223.6h11.5v49.9h-11.5V223.6z"/>
<path class="st2" d="M361.5,223.6c3.9-0.1,7.8,0.7,11.5,2.2c6.4,2.6,10.5,9,10.2,15.9c0.1,3.4-0.8,6.7-2.6,9.6
	c-1.9,2.8-4.5,5-7.6,6.3c-3.6,1.5-7.5,2.2-11.5,2.1h-10v13.8h-11.5v-49.9H361.5z M360.9,250.4c3.5,0,6.1-0.7,7.9-2.2
	c1.8-1.6,2.8-4,2.7-6.4c0.2-2.4-0.8-4.8-2.7-6.4c-1.8-1.5-4.4-2.3-7.9-2.3h-9.4v17.3H360.9z"/>
<path class="st2" d="M408.4,233h-16v-9.4h43.5v9.4h-16v40.5h-11.5V233z"/>
<path class="st2" d="M473.1,255.8v17.7h-11.5v-17.8l-19.3-32.1h12.3l13.3,22.2l13.3-22.2h11.3L473.1,255.8z"/>
</svg>
